<?xml version="1.0" encoding="UTF-8"?>
<svg id="Capa_2" data-name="Capa 2" xmlns="http://www.w3.org/2000/svg" viewBox="0 0 60.69 90.89">
  <defs>
    <style>
      .cls-1 {
        fill: #6a4023;
        stroke-width: 0px;
      }
    </style>
  </defs>
  <g id="Capa_1-2" data-name="Capa 1">
    <path class="cls-1" d="M15.34,15.75c-1.27-.74-4.46,2.34-5.71,3.73-.33.36-1.89,2.13-3.16,4.95-.7,1.56-1.01,2.76-1.53,4.78-.49,1.9-.9,3.54-1.13,5.78-.38,3.76.03,6.7.23,7.9.16.96.43,2.54,1.13,4.5,1.03,2.88,3.08,6.83,4.07,6.56.91-.24-.29-3.73,1.02-9.68.18-.84.65-2.43,1.58-5.62.94-3.2,1.14-3.7,1.7-5.78.59-2.22,1-3.75,1.35-5.9.25-1.55.36-2.93.57-5.67.38-5,.19-5.39-.11-5.56Z"/>
    <path class="cls-1" d="M17.83,15.48c-1.19.72-.34,3.2-.34,7.4,0,2.24-.25,3.87-.54,5.81-.49,3.27-1.22,5.82-1.86,8.04-.43,1.48-.46,1.42-1.61,5.23-.97,3.2-1.15,3.92-1.31,4.91-.41,2.51-.29,4.37-.21,5.16.21,2.23.31,3.34,1.13,4.34,1.58,1.92,4.91,2.46,5.85,1.39.39-.44.29-1.08.23-1.61,0,0-.03-.27-.2-7.62-.05-2.08.29-3.54.96-6.45,0,0,.71-3.08,2.23-7.48.05-.14.27-.78.57-1.68.15-.46.26-.8.33-1.02.65-2.06.98-3.09,1.01-3.2.46-1.57.66-2.85.72-3.25.07-.45.4-2.75.06-5.51-.1-.8-.25-1.59-.79-2.39-.41-.61-.89-.98-1.07-1.11-.91-.66-1.82-.78-2.85-.92-1.28-.17-1.93-.25-2.29-.03Z"/>
    <path class="cls-1" d="M27.36,19.24c-.47.15.43,2.29.01,6.63-.28,2.92-1.01,5.3-1.34,6.34-.73,2.34-.98,2.28-1.8,4.8-.87,2.68-1.26,4.81-1.53,6.34-.57,3.25-.72,5.81-.76,6.88-.14,3.39-.26,6.06.47,9.18,1.22,5.27,4.31,9.58,5.09,9.3.4-.14-.09-1.42.17-4.71.15-1.91.47-3.42.7-4.48.31-1.43.6-2.41,1.17-4.28,1.01-3.33,1.13-3.16,1.74-5.42.53-1.99.94-3.97,1.1-4.8,0,0,.21-1.06.37-1.93.37-2.08.77-6.43.37-10.18-.8-7.36-4.9-13.94-5.75-13.67Z"/>
    <path class="cls-1" d="M36.23,30.32c-1.19.72-.34,3.2-.34,7.4,0,2.24-.25,3.87-.54,5.81-.49,3.27-1.22,5.82-1.86,8.04-.43,1.48-.46,1.42-1.61,5.23-.97,3.2-1.15,3.92-1.31,4.91-.41,2.51-.29,4.37-.21,5.16.21,2.23.31,3.34,1.13,4.34,1.58,1.92,4.91,2.46,5.85,1.39.39-.44.29-1.08.23-1.61,0,0-.03-.27-.2-7.62-.05-2.08.29-3.54.96-6.45,0,0,.71-3.08,2.23-7.48.05-.14.27-.78.57-1.68.15-.46.26-.8.33-1.02.65-2.06.98-3.09,1.01-3.2.46-1.57.66-2.85.72-3.25.07-.45.4-2.75.06-5.51-.1-.8-.25-1.59-.79-2.39-.41-.61-.89-.98-1.07-1.11-.91-.66-1.82-.78-2.85-.92-1.28-.17-1.93-.25-2.29-.03Z"/>
    <path class="cls-1" d="M40.41,72.04c1.27.73,4.44-2.38,5.68-3.77.32-.36,1.87-2.14,3.13-4.97.69-1.56.99-2.76,1.49-4.79.47-1.91.88-3.54,1.08-5.79.35-3.76-.08-6.7-.29-7.9-.17-.96-.45-2.54-1.17-4.5-1.05-2.87-3.14-6.8-4.12-6.53-.9.25.32,3.73-.94,9.68-.18.84-.63,2.43-1.54,5.63-.91,3.2-1.11,3.71-1.65,5.79-.58,2.23-.97,3.76-1.31,5.91-.24,1.55-.33,2.93-.52,5.68-.34,5-.14,5.39.16,5.56Z"/>
    <circle class="cls-1" cx="21.85" cy="6" r="6"/>
    <circle class="cls-1" cx="40.07" cy="22.31" r="6"/>
    <g>
      <path class="cls-1" d="M1.63,90.7h-.68c-.28,0-.51-.1-.68-.3-.18-.2-.26-.48-.26-.85v-9.96l.09-.11h.61c.33,0,.57.1.71.29.14.19.21.5.21.91v10.02ZM5.68,89.08c0,.62-.08,1.04-.25,1.27-.17.23-.45.35-.84.35H.95l-.85-1.37c.47-.09.95-.15,1.45-.19.5-.04.95-.06,1.36-.06h2.78Z"/>
      <path class="cls-1" d="M7.36,79.57c.12-.03.26-.05.41-.06s.29-.02.4-.02c.12,0,.26,0,.41.02.15.01.29.03.41.06v11.11c-.12.03-.26.05-.41.06-.15.01-.29.02-.41.02-.11,0-.25,0-.4-.02s-.29-.03-.41-.06v-11.11Z"/>
      <path class="cls-1" d="M11.55,79.59c.13-.03.29-.06.49-.07.2-.02.36-.02.48-.02s.27,0,.45.02c.18.01.35.03.51.06l-.42,2.15-.13.02c.02.39.04.83.06,1.31s.03.97.05,1.46c.01.49.02.94.02,1.35v4.81c-.13.03-.26.05-.39.06-.13.01-.25.02-.36.02-.1,0-.22,0-.36-.02s-.27-.03-.4-.06v-11.08ZM13.88,84c-.18-.41-.34-.8-.48-1.18-.15-.38-.28-.74-.41-1.08l-.75-1.04,1.25-1.13,2.89,6.67c.19.43.36.86.52,1.26.16.41.3.78.43,1.11l.81.98-1.34,1.09-2.91-6.67ZM18.75,79.58v11.07c-.13.03-.3.06-.49.07s-.36.02-.5.02-.29,0-.46-.02-.34-.03-.51-.06l.45-2.06.13-.02c-.03-.44-.05-.92-.07-1.43-.02-.51-.03-1-.04-1.48,0-.48-.01-.91-.01-1.28v-3.76c0-.41.06-.71.2-.89.13-.18.36-.27.69-.27h.53l.09.1Z"/>
      <path class="cls-1" d="M21.27,79.57c.12-.03.26-.05.41-.06s.28-.02.39-.02c.13,0,.27,0,.41.02.15.01.28.03.41.06v11.11c-.13.03-.27.05-.41.06-.15.01-.29.02-.41.02-.11,0-.24,0-.39-.02s-.29-.03-.41-.06v-11.11ZM25.95,80.24c.12-.24.24-.43.36-.55s.32-.19.58-.19c.14,0,.29,0,.45.02.16.01.33.02.49.04l.1.15-2.09,4.11c-.22.45-.49.8-.83,1.05-.33.26-.75.39-1.26.39h-1.7v-1.07c.25-.02.51-.03.79-.03.28,0,.54-.01.77-.02.15,0,.26-.03.33-.1.07-.07.15-.19.23-.36l1.76-3.44ZM28.34,90.2c-.11.18-.27.33-.48.43-.21.1-.42.16-.62.16-.31,0-.54-.1-.68-.29s-.26-.47-.37-.84l-.74-2.31c-.19-.6-.41-1.02-.65-1.26-.24-.24-.57-.36-.99-.36-.16,0-.38,0-.68.02s-.65.04-1.08.07v-1.2h2.5c.5,0,.9.08,1.19.24s.53.39.71.7c.18.31.34.68.47,1.11l.75,2.3c.12.36.22.63.32.79.09.16.21.31.34.45Z"/>
      <path class="cls-1" d="M34.93,83.49c0-.42-.05-.83-.16-1.24s-.31-.74-.59-1.01c-.28-.26-.67-.4-1.17-.4-.73,0-1.28.37-1.65,1.1s-.55,1.81-.55,3.22c0,1.32.2,2.33.61,3.03.41.71.97,1.06,1.69,1.06.45,0,.89-.11,1.3-.33.42-.22.83-.52,1.23-.89.17.13.33.31.49.54s.26.45.31.67c-.26.3-.58.57-.95.82-.37.25-.78.45-1.24.6-.45.15-.92.22-1.41.22-.69,0-1.28-.16-1.76-.48-.48-.32-.86-.76-1.15-1.3s-.5-1.16-.63-1.84c-.13-.68-.2-1.38-.2-2.1,0-1.35.18-2.45.54-3.31s.84-1.49,1.44-1.9c.6-.41,1.25-.61,1.96-.61s1.32.15,1.84.45.92.7,1.2,1.18c.28.49.42,1.01.42,1.58,0,.33-.07.58-.22.77-.14.19-.38.28-.7.28-.12,0-.23,0-.33-.03-.1-.02-.21-.04-.32-.08Z"/>
      <path class="cls-1" d="M40.5,79.57c.13-.02.29-.04.47-.05.18-.01.34-.02.47-.02s.28,0,.47.02c.19.01.33.03.45.06l3.18,10.98c-.11.08-.26.13-.43.17-.17.04-.35.06-.52.06-.26,0-.46-.07-.6-.2-.14-.14-.27-.4-.37-.79l-1.49-5.43c-.13-.47-.26-.98-.4-1.52s-.26-1.03-.36-1.48h-.08c-.07.38-.16.81-.28,1.28-.11.47-.21.87-.3,1.19l-1.89,6.85c-.1.03-.21.05-.33.06s-.24.02-.37.02c-.14,0-.28-.01-.42-.03-.14-.02-.27-.05-.37-.1l-.06-.09,3.21-10.98ZM40.36,88.05s-.14,0-.26,0c-.13,0-.26,0-.39,0-.13,0-.22,0-.27,0h-.78l.51-1.5h.68s.13,0,.25,0,.23,0,.35,0c.11,0,.19,0,.24,0h1.37s.13,0,.25,0c.12,0,.23,0,.35,0s.2,0,.25,0h.7l.43,1.5h-.78s-.14,0-.27,0c-.13,0-.26,0-.39,0-.13,0-.22,0-.26,0h-1.97Z"/>
      <path class="cls-1" d="M48.7,90.67c-.13.03-.27.05-.41.06s-.27.02-.4.02-.26,0-.41-.02-.28-.03-.41-.06v-11.01l.09-.1h1.52v.85c0,.42,0,.85,0,1.28s0,.86,0,1.27v7.71ZM52.87,79.57c.03.1.06.22.07.36.01.14.02.26.02.37,0,.3-.07.52-.22.66-.15.14-.38.21-.68.21h-2.05c-.38,0-.74,0-1.06-.01-.32,0-.62-.02-.89-.04v-1.54h4.82ZM52.1,84.32c.03.11.05.24.06.39s.02.27.02.37c0,.11,0,.23-.02.38s-.03.28-.06.4h-2.84c-.18,0-.38,0-.59-.01s-.41-.01-.59-.01v-1.5c.18,0,.38,0,.59,0s.41,0,.59,0h2.84Z"/>
      <path class="cls-1" d="M54.52,79.67l.09-.11h1.5v1.53c0,.23,0,.42,0,.57s0,.33,0,.56v6.07c0,.15,0,.29,0,.43s0,.28,0,.44v1.54h-.66c-.29,0-.52-.1-.68-.3-.17-.2-.25-.48-.25-.83v-9.89ZM60.4,79.57c.02.14.04.27.05.39,0,.12.01.24.01.34,0,.11-.01.24-.03.39s-.05.3-.1.44h-3.74c-.18,0-.36,0-.54,0-.19,0-.35-.01-.49-.02v-1.54h4.84ZM59.62,84.3c.03.12.05.25.06.4.01.15.02.27.02.37s0,.22-.02.37c-.01.14-.04.27-.06.4h-2.6c-.11,0-.25,0-.43,0-.18,0-.36,0-.54,0-.19,0-.35,0-.49,0v-1.5c.14,0,.31,0,.49-.01.19,0,.37,0,.54,0,.18,0,.32,0,.43,0h2.6ZM60.69,89.12c0,.55-.07.95-.22,1.2-.15.25-.43.37-.85.37h-4.06v-1.5c.24-.02.47-.03.71-.05.23-.02.5-.02.8-.02h3.63Z"/>
    </g>
  </g>
</svg>