<?xml version="1.0" encoding="UTF-8"?>
<svg id="Capa_2" data-name="Capa 2" xmlns="http://www.w3.org/2000/svg" viewBox="0 0 198.2 73.13">
  <defs>
    <style>
      .cls-1 {
        fill: #6a4023;
        stroke-width: 0px;
      }
    </style>
  </defs>
  <g id="Capa_1-2" data-name="Capa 1">
    <g>
      <path class="cls-1" d="M66.06,56.07h-1.53c-.63,0-1.14-.19-1.53-.57-.39-.38-.59-.93-.59-1.64v-19.21l.21-.2h1.37c.74,0,1.28.19,1.59.56s.48.95.48,1.75v19.32ZM75.13,52.95c0,1.19-.19,2.01-.57,2.45-.38.44-1.01.67-1.89.67h-8.14l-1.9-2.63c1.04-.17,2.12-.29,3.24-.37,1.12-.08,2.13-.12,3.04-.12h6.21Z"/>
      <path class="cls-1" d="M78.88,34.6c.28-.05.58-.09.92-.11.34-.02.64-.03.89-.03.28,0,.58.01.92.03.33.02.64.06.92.11v21.42c-.28.05-.58.09-.92.11-.33.02-.64.03-.92.03-.25,0-.55-.01-.89-.03-.34-.02-.65-.06-.92-.11v-21.42Z"/>
      <path class="cls-1" d="M88.25,34.65c.29-.06.65-.11,1.1-.14.45-.03.8-.05,1.07-.05s.61.01,1.01.03.78.06,1.14.11l-.94,4.16-.29.05c.05.75.1,1.59.14,2.52s.08,1.87.1,2.81c.03.95.04,1.81.04,2.6v9.28c-.3.05-.59.09-.88.11-.29.02-.55.03-.8.03-.22,0-.49-.01-.8-.03-.31-.02-.61-.06-.9-.11v-21.38ZM93.46,43.15c-.39-.78-.75-1.54-1.08-2.28-.33-.74-.64-1.43-.92-2.08l-1.69-2.01,2.8-2.18,6.47,12.86c.41.84.8,1.65,1.16,2.44.36.79.68,1.5.96,2.14l1.82,1.88-3,2.1-6.52-12.88ZM104.36,34.63v21.35c-.3.06-.66.11-1.09.14-.43.03-.8.05-1.12.05s-.65-.01-1.04-.03c-.38-.02-.76-.06-1.13-.11l1-3.97.29-.05c-.06-.86-.12-1.77-.16-2.75-.04-.98-.07-1.93-.1-2.86s-.03-1.76-.03-2.48v-7.25c0-.79.15-1.36.44-1.71.29-.34.81-.52,1.54-.52h1.2l.21.19Z"/>
      <path class="cls-1" d="M110,34.6c.28-.05.58-.09.92-.11s.63-.03.88-.03c.29,0,.6.01.92.03s.64.06.92.11v21.42c-.29.05-.59.09-.92.11-.33.02-.64.03-.92.03-.24,0-.54-.01-.88-.03-.34-.02-.65-.06-.92-.11v-21.42ZM120.47,35.9c.26-.47.54-.83.81-1.07.28-.24.71-.36,1.31-.36.31,0,.65.01,1.01.03s.73.05,1.09.08l.22.3-4.68,7.92c-.49.86-1.11,1.53-1.85,2.03-.74.5-1.68.74-2.82.74h-3.79v-2.05c.55-.03,1.14-.05,1.78-.06.63-.01,1.21-.02,1.73-.03.34,0,.59-.07.74-.2.15-.13.33-.36.52-.7l3.94-6.63ZM125.82,55.11c-.24.36-.6.63-1.07.83-.47.2-.93.3-1.39.3-.7,0-1.21-.18-1.52-.55-.31-.37-.59-.9-.84-1.62l-1.66-4.45c-.42-1.16-.91-1.97-1.46-2.44s-1.28-.7-2.21-.7c-.35,0-.86.01-1.51.04-.66.03-1.46.07-2.41.13v-2.32h5.59c1.12,0,2,.15,2.67.46.66.31,1.2.76,1.59,1.35s.75,1.3,1.06,2.14l1.67,4.44c.27.7.5,1.21.71,1.52.21.31.46.6.76.86Z"/>
      <path class="cls-1" d="M140.56,42.17c.01-.8-.11-1.6-.37-2.38s-.7-1.43-1.32-1.94c-.63-.51-1.5-.77-2.61-.77-1.64,0-2.86.71-3.68,2.13-.82,1.42-1.23,3.49-1.23,6.22,0,2.54.45,4.49,1.36,5.85.91,1.36,2.17,2.04,3.78,2.04,1.01,0,1.98-.21,2.92-.64.93-.42,1.85-1,2.74-1.72.38.25.75.6,1.1,1.04.35.44.58.87.69,1.29-.58.58-1.29,1.1-2.13,1.58s-1.76.87-2.76,1.15c-1.01.29-2.06.43-3.16.43-1.55,0-2.86-.31-3.93-.93-1.07-.62-1.93-1.46-2.58-2.51s-1.13-2.23-1.42-3.55c-.29-1.32-.44-2.67-.44-4.05,0-2.6.4-4.73,1.21-6.39.81-1.66,1.88-2.88,3.22-3.67,1.34-.79,2.8-1.18,4.38-1.18s2.96.29,4.12.87c1.16.58,2.06,1.34,2.69,2.28.63.94.94,1.96.94,3.04,0,.63-.16,1.12-.49,1.48-.32.36-.85.54-1.57.54-.28,0-.52-.02-.74-.06-.22-.04-.46-.09-.73-.15Z"/>
      <path class="cls-1" d="M153.02,34.6c.3-.04.65-.08,1.06-.1.41-.03.76-.04,1.06-.04s.64.01,1.05.04c.41.03.75.07,1,.12l7.11,21.19c-.26.15-.58.26-.96.34-.39.08-.77.12-1.16.12-.57,0-1.02-.13-1.34-.39-.32-.26-.6-.77-.83-1.52l-3.33-10.48c-.29-.91-.58-1.88-.88-2.92s-.57-1.99-.8-2.86h-.18c-.16.73-.37,1.55-.62,2.46s-.48,1.67-.67,2.29l-4.22,13.22c-.22.05-.47.09-.74.11-.27.02-.54.03-.82.03-.31,0-.62-.02-.94-.06-.32-.04-.59-.1-.83-.19l-.13-.17,7.17-21.17ZM152.72,50.96c-.11,0-.3,0-.59,0-.29,0-.58-.01-.87-.02-.29,0-.49,0-.6,0h-1.74l1.13-2.9h1.53c.11,0,.29,0,.55,0,.26,0,.52-.01.77-.02s.43,0,.53,0h3.06c.11,0,.29,0,.55,0,.26,0,.52.01.79.02s.45,0,.56,0h1.56l.97,2.9h-1.74c-.11,0-.31,0-.61,0-.3,0-.59.01-.88.02-.29,0-.48,0-.59,0h-4.4Z"/>
      <path class="cls-1" d="M171.37,56.02c-.3.05-.6.09-.92.11-.31.02-.61.03-.9.03s-.58-.01-.91-.03c-.33-.02-.64-.06-.92-.11v-21.24l.21-.19h3.41v1.63c0,.82,0,1.64.02,2.47.01.83.02,1.65.02,2.45v14.87ZM180.69,34.6c.07.2.12.43.15.69.03.26.04.5.04.72,0,.58-.17,1-.5,1.26-.33.27-.84.4-1.52.4h-4.59c-.86,0-1.65,0-2.37-.02s-1.38-.04-2-.07v-2.98h10.79ZM178.97,43.77c.06.22.11.47.14.75s.04.52.04.72c0,.21-.01.45-.04.73-.03.28-.07.54-.14.78h-6.36c-.4,0-.84,0-1.31-.02s-.91-.02-1.31-.02v-2.9c.4,0,.84,0,1.31-.02s.91-.02,1.31-.02h6.36Z"/>
      <path class="cls-1" d="M184.39,34.8l.21-.2h3.35v2.95c0,.44,0,.8.02,1.09.01.29.02.65.02,1.07v11.7c0,.29,0,.57-.02.82,0,.26-.02.54-.02.85v2.98h-1.47c-.65,0-1.16-.2-1.53-.59s-.56-.93-.56-1.61v-19.07ZM197.55,34.6c.05.26.09.51.1.75.02.24.02.46.02.66,0,.21-.02.46-.07.76s-.12.58-.21.85h-8.37c-.39,0-.8,0-1.21-.02-.42-.01-.78-.02-1.1-.03v-2.98h10.84ZM195.8,43.73c.06.23.11.49.14.77.03.28.05.52.05.72s-.02.43-.05.71c-.03.27-.08.53-.14.77h-5.82c-.25,0-.56,0-.96,0-.39,0-.8-.01-1.21-.02-.42,0-.78,0-1.1,0v-2.89c.32-.01.68-.02,1.1-.02.41,0,.82-.01,1.21-.02.39,0,.71,0,.96,0h5.82ZM198.2,53.03c0,1.07-.17,1.84-.5,2.32s-.97.72-1.9.72h-9.08v-2.9c.53-.03,1.06-.06,1.58-.09.52-.03,1.12-.05,1.79-.05h8.13Z"/>
    </g>
    <path class="cls-1" d="M11.68,15.75c-1.27-.74-4.46,2.34-5.71,3.73-.33.36-1.89,2.13-3.16,4.95-.7,1.56-1.01,2.76-1.53,4.78-.49,1.9-.9,3.54-1.13,5.78-.38,3.76.03,6.7.23,7.9.16.96.43,2.54,1.13,4.5,1.03,2.88,3.08,6.83,4.07,6.56.91-.24-.29-3.73,1.02-9.68.18-.84.65-2.43,1.58-5.62.94-3.2,1.14-3.7,1.7-5.78.59-2.22,1-3.75,1.35-5.9.25-1.55.36-2.93.57-5.67.38-5,.19-5.39-.11-5.56Z"/>
    <path class="cls-1" d="M14.17,15.48c-1.19.72-.34,3.2-.34,7.4,0,2.24-.25,3.87-.54,5.81-.49,3.27-1.22,5.82-1.86,8.04-.43,1.48-.46,1.42-1.61,5.23-.97,3.2-1.15,3.92-1.31,4.91-.41,2.51-.29,4.37-.21,5.16.21,2.23.31,3.34,1.13,4.34,1.58,1.92,4.91,2.46,5.85,1.39.39-.44.29-1.08.23-1.61,0,0-.03-.27-.2-7.62-.05-2.08.29-3.54.96-6.45,0,0,.71-3.08,2.23-7.48.05-.14.27-.78.57-1.68.15-.46.26-.8.33-1.02.65-2.06.98-3.09,1.01-3.2.46-1.57.66-2.85.72-3.25.07-.45.4-2.75.06-5.51-.1-.8-.25-1.59-.79-2.39-.41-.61-.89-.98-1.07-1.11-.91-.66-1.82-.78-2.85-.92-1.28-.17-1.93-.25-2.29-.03Z"/>
    <path class="cls-1" d="M23.71,19.24c-.47.15.43,2.29.01,6.63-.28,2.92-1.01,5.3-1.34,6.34-.73,2.34-.98,2.28-1.8,4.8-.87,2.68-1.26,4.81-1.53,6.34-.57,3.25-.72,5.81-.76,6.88-.14,3.39-.26,6.06.47,9.18,1.22,5.27,4.31,9.58,5.09,9.3.4-.14-.09-1.42.17-4.71.15-1.91.47-3.42.7-4.48.31-1.43.6-2.41,1.17-4.28,1.01-3.33,1.13-3.16,1.74-5.42.53-1.99.94-3.97,1.1-4.8,0,0,.21-1.06.37-1.93.37-2.08.77-6.43.37-10.18-.8-7.36-4.9-13.94-5.75-13.67Z"/>
    <path class="cls-1" d="M32.58,30.32c-1.19.72-.34,3.2-.34,7.4,0,2.24-.25,3.87-.54,5.81-.49,3.27-1.22,5.82-1.86,8.04-.43,1.48-.46,1.42-1.61,5.23-.97,3.2-1.15,3.92-1.31,4.91-.41,2.51-.29,4.37-.21,5.16.21,2.23.31,3.34,1.13,4.34,1.58,1.92,4.91,2.46,5.85,1.39.39-.44.29-1.08.23-1.61,0,0-.03-.27-.2-7.62-.05-2.08.29-3.54.96-6.45,0,0,.71-3.08,2.23-7.48.05-.14.27-.78.57-1.68.15-.46.26-.8.33-1.02.65-2.06.98-3.09,1.01-3.2.46-1.57.66-2.85.72-3.25.07-.45.4-2.75.06-5.51-.1-.8-.25-1.59-.79-2.39-.41-.61-.89-.98-1.07-1.11-.91-.66-1.82-.78-2.85-.92-1.28-.17-1.93-.25-2.29-.03Z"/>
    <path class="cls-1" d="M36.75,72.04c1.27.73,4.44-2.38,5.68-3.77.32-.36,1.87-2.14,3.13-4.97.69-1.56.99-2.76,1.49-4.79.47-1.91.88-3.54,1.08-5.79.35-3.76-.08-6.7-.29-7.9-.17-.96-.45-2.54-1.17-4.5-1.05-2.87-3.14-6.8-4.12-6.53-.9.25.32,3.73-.94,9.68-.18.84-.63,2.43-1.54,5.63-.91,3.2-1.11,3.71-1.65,5.79-.58,2.23-.97,3.76-1.31,5.91-.24,1.55-.33,2.93-.52,5.68-.34,5-.14,5.39.16,5.56Z"/>
    <circle class="cls-1" cx="18.19" cy="6" r="6"/>
    <circle class="cls-1" cx="36.42" cy="22.31" r="6"/>
  </g>
</svg>